# xmcd
# 
# Track frame offsets:
#     182
#     21477
#     39407
#     63782
#     83027
#     105617
#     135115
#     146965
#     172145
#     189705
# 
# Disc length: 2755
# 
# Revision: 18
# Processed by: cddbd v1.5.2PL0 Copyright (c) Steve Scherf et al.
# Submitted via: fre:ac v1.0.27
# 
DISCID=870ac10a
DTITLE=Melissa Etheridge - Melissa Etheridge
DYEAR=1987
DGENRE=Rock
TTITLE0=Similar Features
TTITLE1=Chrome Plated Heart
TTITLE2=Like the Way I Do
TTITLE3=Precious Pain
TTITLE4=Don't You Need
TTITLE5=The Late September Dogs
TTITLE6=Occasionally
TTITLE7=Watching you
TTITLE8=Bring Me Some Water
TTITLE9=I Want You
EXTD=
EXTT0=
EXTT1=
EXTT2=
EXTT3=
EXTT4=
EXTT5=
EXTT6=
EXTT7=
EXTT8=
EXTT9=
PLAYORDER=
